<?xml version="1.0" encoding="utf-8"?>
<!-- Generator: Adobe Illustrator 23.0.3, SVG Export Plug-In . SVG Version: 6.00 Build 0)  -->
<svg version="1.1" id="Layer_1" xmlns="http://www.w3.org/2000/svg" xmlns:xlink="http://www.w3.org/1999/xlink" x="0px" y="0px"
	 viewBox="0 0 66.88 148.34" enable-background="new 0 0 66.88 148.34" xml:space="preserve">
<g>
	<defs>
		<rect id="SVGID_1_" width="66.88" height="148.34"/>
	</defs>
	<clipPath id="SVGID_2_">
		<use xlink:href="#SVGID_1_"  overflow="visible"/>
	</clipPath>
	<path clip-path="url(#SVGID_2_)" fill="#C3151C" d="M21.62,8.32c4.96-2.1,9.81-4.44,14.8-6.45c0.43,0.18,0.86,0.35,1.29,0.52
		c0.06,0.77,0.41,1.86-0.52,2.26c-2.72,1.39-5.66,2.32-8.33,3.81c2.12,1.05,4.39,1.97,5.99,3.77c3.04,3.08,4.38,7.76,3.3,11.95
		c-0.74,3.25-2.82,6.18-5.65,7.96c-2.9,1.97-6.65,2.39-10.04,1.69c-3.5-0.77-6.47-3.19-8.3-6.21c-1.81-3.19-2.15-7.16-0.95-10.62
		c0.19-0.6,0.38-1.2,0.55-1.8c-2.95,0.81-5.55,2.59-8.47,3.47c-1.61,0.13-2.04-2.45-0.52-2.87C10.37,13.25,16.03,10.87,21.62,8.32"
		/>
	<path clip-path="url(#SVGID_2_)" fill="#C3151C" d="M15.45,34.03C25.5,34.68,35,39.2,42.66,45.57c5.3,4.37,9.7,9.76,13.14,15.68
		c5.14,8.92,7.87,19.11,8.34,29.35c-0.04,4.12,0.21,8.27-0.37,12.37c-0.86,8.84-3.21,17.48-6.31,25.79
		c-0.19,0.34-0.26,1.03-0.81,0.94c-3.83,0.03-7.66-0.04-11.49,0.03c4.23-10.44,5.22-22.01,3.52-33.09
		c-1.74-10.48-6.03-20.66-13.08-28.7c-3.63-4.11-7.98-7.69-12.97-10.05c2.37-1.17,4.38-3.13,5.44-5.57
		c1.69-3.86,0.81-8.72-2.28-11.64c-2.42-2.56-6.12-3.53-9.56-3.18C15.85,36.37,15.57,35.21,15.45,34.03"/>
	<path clip-path="url(#SVGID_2_)" fill="#C3151C" d="M10.16,56.64c7.17,1.52,13.79,5.15,19.11,10.13
		c9.07,8.58,14.48,20.57,15.98,32.84c0.89,6.37,0.43,12.82-0.52,19.16c-0.64,3.75-1.83,7.37-3.13,10.94
		c-3.84-0.02-7.69-0.03-11.53,0c1.45-4.81,2.22-9.8,2.38-14.82c-0.29-5.1-0.82-10.25-2.57-15.1c-1.76-5.31-4.87-10.12-8.7-14.18
		c-1.84-1.72-3.77-3.42-6.05-4.54c1.73-1.45,3.39-3.21,3.84-5.5c0.2-1.76,0.28-3.65-0.47-5.3c-0.82-1.8-2.21-3.38-4.02-4.23
		c-1.85-0.72-1.93-3-2.86-4.51C11.07,59.96,9.5,58.4,10.16,56.64"/>
	<path clip-path="url(#SVGID_2_)" fill="#C3151C" d="M5.3,81.66c6.02-0.05,11.44,3.54,15.11,8.06c4.54,5.59,6.99,12.61,7.92,19.68
		c0.27,3.07,0.67,6.17,0.19,9.24c-0.09,3.77-1.15,7.42-2.05,11.06c-7.42,0.05-14.85-0.07-22.27,0.06
		c5.79-5.32,8.68-13.15,9.44-20.82c0.17-3.57,0.23-7.19-0.47-10.71C12.16,92.11,9.42,86.3,5.3,81.66"/>
	<path clip-path="url(#SVGID_2_)" fill="#C3151C" d="M3.95,132.14c3.49,0.4,7.36-0.73,10.54,1.21c4.33,2.61,4.05,10-0.53,12.21
		c-3.06,1.37-6.52,0.69-9.76,0.83c0.6-3.12,0.3-6.3,0.38-9.45C4.55,135.33,4.75,133.61,3.95,132.14 M8.21,135.08
		c0.01,3.11-0.16,6.22,0.11,9.32c1.54,0.4,3.39,0.19,4.32-1.24c1.42-2.23,1.44-5.35,0.02-7.6c-0.63-1.13-2.07-1.46-3.27-1.39
		C8.8,134.05,8.12,134.39,8.21,135.08"/>
	<path clip-path="url(#SVGID_2_)" fill="#C3151C" d="M18.54,132.16c1.39,0.07,2.77,0.03,4.16,0.1c1.43,2.18,3.03,4.23,4.52,6.37
		c0.56,0.78,1.06,1.66,1.93,2.14c-0.13-2.85,0.51-5.85-0.53-8.59c1.06,0.03,2.11,0.03,3.16-0.02c-0.37,0.68-0.82,1.38-0.78,2.18
		c-0.05,4.08,0.03,8.17-0.03,12.26c-1.93-0.44-3.69-1.55-4.73-3.25c-1.56-1.95-2.64-4.32-4.55-5.94c-0.14,2.21-0.08,4.43-0.06,6.64
		c-0.04,0.78,0.38,1.47,0.74,2.14c-1.06-0.06-2.11-0.05-3.17-0.03c0.28-0.8,0.58-1.61,0.54-2.48c-0.01-3.11,0.03-6.23-0.03-9.34
		C19.77,133.45,19.1,132.77,18.54,132.16"/>
	<path clip-path="url(#SVGID_2_)" fill="#C3151C" d="M34.05,132.22c3.5-0.04,7,0.04,10.5-0.04c-0.26,0.89-0.46,1.79-0.63,2.71
		c-0.92-0.62-2-0.78-3.08-0.66c-0.14,2.03-0.05,4.05-0.07,6.08c0.02,2.07-0.27,4.28,0.81,6.16c-1.66-0.08-3.34-0.08-5,0
		c0.33-1.03,0.47-2.1,0.44-3.17c-0.05-3.03,0.06-6.06-0.06-9.08c-1.23-0.1-2.43,0.23-3.54,0.72
		C33.62,134.03,33.86,133.13,34.05,132.22"/>
	<path clip-path="url(#SVGID_2_)" fill="#C3151C" d="M45.59,132.16c1.65,0.07,3.31,0.09,4.96-0.02c-0.35,0.54-0.73,1.11-0.7,1.79
		c-0.05,2.75-0.04,5.51,0,8.26c-0.15,1.5,1.56,2.89,2.96,2.14c1.17-0.39,1.43-1.82,1.45-2.89c0.01-2.5,0.03-5.01-0.01-7.51
		c0.05-0.68-0.4-1.23-0.73-1.78c1.65,0.1,3.32,0.09,4.97,0.01c-0.89,1.84-0.4,3.94-0.51,5.9c0.12,2.77-0.28,5.59,0.32,8.32
		c-1.32,0.03-2.63,0.03-3.95-0.01c-0.05-0.53-0.11-1.06-0.16-1.59c-1.18,0.8-2.28,1.95-3.84,1.82c-1.99,0.28-4.02-1.27-4.19-3.27
		c-0.14-3,0.01-6.02-0.05-9.02C46.12,133.56,45.85,132.85,45.59,132.16"/>
	<path clip-path="url(#SVGID_2_)" fill="#1C76BC" d="M14.83,40.83c3.94-1.37,8.59,1.07,9.77,5.03c0.95,2.65,0.12,5.67-1.68,7.76
		c-1.18,1.24-2.81,2-4.48,2.32c-4.18,0.81-8.7-2.5-8.95-6.77C8.92,45.57,11.28,41.79,14.83,40.83"/>
	<path clip-path="url(#SVGID_2_)" fill="#1C76BC" d="M9.56,68.79c3.3-0.71,6.6,2.4,6.1,5.71c-0.17,3.27-3.92,5.53-6.93,4.33
		c-3.37-0.99-4.53-5.74-2.19-8.25C7.3,69.65,8.39,69.06,9.56,68.79"/>
</g>
</svg>
